<svg xmlns="http://www.w3.org/2000/svg" viewBox="0 0 512 512">
  <rect width="512" height="512" rx="112" fill="#ff5500"/>
  <g transform="scale(0.6117084826762246)">
    <path d="M 413 168.387 L 402.500 170.561 401.243 187.031 C 400.552 196.089, 399.745 204.554, 399.451 205.842 C 398.953 208.019, 398.351 207.645, 390.926 200.551 C 382.785 192.773, 371.865 185.017, 364.248 181.601 L 360.013 179.702 350.757 183.802 C 342.865 187.297, 341.511 188.240, 341.577 190.201 C 341.619 191.465, 342.818 199.250, 344.241 207.500 C 345.664 215.750, 347.058 225.076, 347.339 228.225 L 347.850 233.951 339.746 238.007 C 329.774 242.998, 322.195 249.350, 316.891 257.161 C 311.640 264.893, 310.211 268.460, 309.030 276.789 L 308.057 283.650 294.278 297.633 C 278.320 313.829, 267.226 326.457, 253.545 344 C 247.862 351.287, 241.298 358.453, 237.804 361.183 C 229.652 367.554, 221.543 377.150, 217.695 384.979 C 214.791 390.888, 214.516 392.253, 214.675 399.990 C 214.868 409.348, 216.229 414.307, 223.184 431 C 228.117 442.839, 233.108 450.157, 241.452 457.782 C 255.394 470.524, 275.688 474.761, 292.166 468.370 C 298.472 465.924, 308.684 458.914, 315 452.695 C 318.861 448.893, 322.275 446.623, 326.458 445.076 C 333.704 442.396, 344.864 436.886, 351.138 432.890 C 354.812 430.549, 357.616 429.727, 364.638 428.930 C 375.903 427.652, 384.320 425.699, 391.985 422.584 C 395.316 421.231, 397.732 420.658, 397.354 421.312 C 396.975 421.965, 394.531 425.200, 391.922 428.500 C 387.011 434.713, 376.774 444.856, 352.064 467.992 C 327.403 491.083, 315.713 505.573, 305.669 525.500 C 297.434 541.836, 294.011 556.810, 294.004 576.526 C 293.997 595.310, 296.425 609.392, 302.663 626.750 L 305.268 634 449.115 634 L 592.962 634 593.475 631.750 C 594.519 627.175, 601.961 573.083, 603.209 561 C 604.006 553.284, 604.493 535.105, 604.483 513.500 C 604.467 481.921, 604.252 477.327, 602.286 466.500 C 594.258 422.304, 576.022 374.603, 552.725 336.860 C 540.640 317.282, 533.223 307.866, 505.962 277.500 C 492.631 262.650, 480.704 249.150, 479.458 247.500 C 478.212 245.850, 476.516 242.250, 475.688 239.500 C 471.666 226.129, 461.983 207.801, 451.122 193 C 444.112 183.449, 427.196 165.967, 425.099 166.107 C 424.220 166.165, 418.775 167.192, 413 168.387 M 541.516 442 C 541.765 445.025, 542.257 458.451, 542.609 471.837 C 543.497 505.596, 541.379 528.780, 534.503 560.583 C 533.126 566.950, 532 572.574, 532 573.080 C 532 573.586, 535.072 574, 538.827 574 L 545.654 574 546.815 567.703 C 550.982 545.085, 552.491 505.621, 550.053 483 C 548.802 471.390, 544.787 449.268, 542.521 441.500 L 541.063 436.500 541.516 442" fill="#111111" fill-rule="evenodd"/>
  </g>
</svg>
